<?xml version="1.0" encoding="UTF-8"?>
<!DOCTYPE svg PUBLIC "-//W3C//DTD SVG 1.1//EN" "http://www.w3.org/Graphics/SVG/1.1/DTD/svg11.dtd">
<svg xmlns="http://www.w3.org/2000/svg" version="1.1" width="512px" height="512px" style="shape-rendering:geometricPrecision; text-rendering:geometricPrecision; image-rendering:optimizeQuality; fill-rule:evenodd; clip-rule:evenodd" xmlns:xlink="http://www.w3.org/1999/xlink">
<g><path style="opacity:0.997" fill="transparent" d="M 232.5,-0.5 C 247.833,-0.5 263.167,-0.5 278.5,-0.5C 368.144,10.3879 435.644,54.7213 481,132.5C 497.695,163.971 507.861,197.304 511.5,232.5C 511.5,247.833 511.5,263.167 511.5,278.5C 500.612,368.144 456.279,435.644 378.5,481C 347.029,497.695 313.696,507.861 278.5,511.5C 263.167,511.5 247.833,511.5 232.5,511.5C 142.856,500.612 75.3562,456.279 30,378.5C 13.3053,347.029 3.1386,313.696 -0.5,278.5C -0.5,263.167 -0.5,247.833 -0.5,232.5C 10.3875,142.857 54.7208,75.3573 132.5,30C 163.971,13.3053 197.304,3.1386 232.5,-0.5 Z"/></g>
<g><path style="opacity:1" fill="#eee" d="M 241.5,77.5 C 272.592,74.2254 298.592,84.0587 319.5,107C 363.808,106.884 392.974,127.717 407,169.5C 414.223,209.204 401.223,240.204 368,262.5C 367.5,305.499 367.333,348.499 367.5,391.5C 292.5,391.5 217.5,391.5 142.5,391.5C 142.667,348.499 142.5,305.499 142,262.5C 107.038,238.641 94.7052,205.974 105,164.5C 120.721,125.804 149.554,106.637 191.5,107C 205.109,91.8715 221.776,82.0381 241.5,77.5 Z"/></g>
<g><path style="opacity:1" fill="#222" d="M 336.5,141.5 C 341.452,141.675 343.952,144.342 344,149.5C 346.57,180.131 336.737,205.965 314.5,227C 308.24,229.412 305.407,227.245 306,220.5C 327.481,199.729 336.481,174.396 333,144.5C 334.145,143.364 335.312,142.364 336.5,141.5 Z"/></g>
<g><path style="opacity:1" fill="#eee" d="M 143.5,401.5 C 218.5,401.5 293.5,401.5 368.5,401.5C 368.5,412.167 368.5,422.833 368.5,433.5C 293.5,433.5 218.5,433.5 143.5,433.5C 143.5,422.833 143.5,412.167 143.5,401.5 Z"/></g>
</svg>
